name D:\PhD\Datasets\SharingData_IBEC_VALDUCE\DC_Comp_0001.mot
datacolumns 46
datarows 10
range 2.51000000 2.60000000
endheader
                time	         pelvis_tilt	     pelvis_rotation	           pelvis_tx	           pelvis_ty	           pelvis_tz	       hip_flexion_r	     hip_adduction_r	      hip_rotation_r	        knee_angle_r	       ankle_angle_r	    subtalar_angle_r	         mtp_angle_r	       hip_flexion_l	     hip_adduction_l	      hip_rotation_l	        knee_angle_l	       ankle_angle_l	    subtalar_angle_l	         mtp_angle_l	    lumbar_extension	      lumbar_bending	     lumbar_rotation	          arm_flex_r	           arm_add_r	           arm_rot_r	        elbow_flex_r	           pro_sup_r	        wrist_flex_r	         wrist_dev_r	          arm_flex_l	           arm_add_l	           arm_rot_l	        elbow_flex_l	           pro_sup_l	        wrist_flex_l	         wrist_dev_l	          end_eff_tx	          end_eff_ty	          end_eff_tz	             goal_tx	             goal_ty	             goal_tz	            elbow_tx	            elbow_ty	            elbow_tz	
          2.51000000	          0.00000000	          0.00000000	        390.91875319	        470.64682759	        353.19531355	          0.00000000	          0.00000000	          0.00000000	          0.00000000	          0.00000000	          0.00000000	          0.00000000	          0.00000000	          0.00000000	          0.00000000	          0.00000000	          0.00000000	          0.00000000	          0.00000000	         -7.10016632	          1.95059741	         -0.09626608	         24.39149284	        -35.99076080	         31.18992615	         87.56441498	         87.50086212	          0.00000000	          0.00000000	          0.00000000	          0.00000000	          0.00000000	          0.00000000	          0.00000000	          0.00000000	          0.00000000	        779.51765409	        309.07216668	        439.15542424	        759.53286762	        394.15863356	        443.60903538	        441.69552000	        313.93834955	        682.05889025	
          2.52000000	          0.00000000	          0.00000000	        390.98736528	        470.66018309	        353.34174174	          0.00000000	          0.00000000	          0.00000000	          0.00000000	          0.00000000	          0.00000000	          0.00000000	          0.00000000	          0.00000000	          0.00000000	          0.00000000	          0.00000000	          0.00000000	          0.00000000	         -7.10652208	          1.94541287	         -0.09598879	         24.32906532	        -36.06199265	         30.99276543	         87.56540680	         87.46228027	          0.00000000	          0.00000000	          0.00000000	          0.00000000	          0.00000000	          0.00000000	          0.00000000	          0.00000000	          0.00000000	        779.89808244	        309.06591957	        440.66444795	        759.93981950	        394.21793541	        445.10613879	        441.40519263	        313.89393861	        682.50740897	
          2.53000000	          0.00000000	          0.00000000	        391.06978427	        470.65157496	        353.50462084	          0.00000000	          0.00000000	          0.00000000	          0.00000000	          0.00000000	          0.00000000	          0.00000000	          0.00000000	          0.00000000	          0.00000000	          0.00000000	          0.00000000	          0.00000000	          0.00000000	         -7.10707426	          1.97129166	         -0.10785195	         24.25395203	        -36.14889526	         30.81391716	         87.57794189	         87.44860840	          0.00000000	          0.00000000	          0.00000000	          0.00000000	          0.00000000	          0.00000000	          0.00000000	          0.00000000	          0.00000000	        780.34394513	        309.13778360	        442.24496839	        760.36389997	        394.18682664	        446.66260732	        441.04514561	        313.87926430	        682.99395697	
          2.54000000	          0.00000000	          0.00000000	        391.16181988	        470.70122564	        353.68471044	          0.00000000	          0.00000000	          0.00000000	          0.00000000	          0.00000000	          0.00000000	          0.00000000	          0.00000000	          0.00000000	          0.00000000	          0.00000000	          0.00000000	          0.00000000	          0.00000000	         -7.12227631	          1.92922688	         -0.10624448	         24.15111923	        -36.17035294	         30.62610435	         87.54195404	         87.51533508	          0.00000000	          0.00000000	          0.00000000	          0.00000000	          0.00000000	          0.00000000	          0.00000000	          0.00000000	          0.00000000	        780.84690640	        309.26415668	        443.95894018	        760.88115232	        394.37930115	        448.31808120	        440.69495102	        313.91297870	        683.54874265	
          2.55000000	          0.00000000	          0.00000000	        391.22205091	        470.65153565	        353.81043510	          0.00000000	          0.00000000	          0.00000000	          0.00000000	          0.00000000	          0.00000000	          0.00000000	          0.00000000	          0.00000000	          0.00000000	          0.00000000	          0.00000000	          0.00000000	          0.00000000	         -7.13042641	          1.95532501	         -0.11517544	         24.04381752	        -36.24020767	         30.44937325	         87.57064056	         87.35208130	          0.00000000	          0.00000000	          0.00000000	          0.00000000	          0.00000000	          0.00000000	          0.00000000	          0.00000000	          0.00000000	        781.41244543	        309.21741601	        445.66641200	        761.36799614	        394.24589171	        449.88709534	        440.31297931	        314.03357014	        684.22574395	
          2.56000000	          0.00000000	          0.00000000	        391.37077472	        470.72743286	        353.99589680	          0.00000000	          0.00000000	          0.00000000	          0.00000000	          0.00000000	          0.00000000	          0.00000000	          0.00000000	          0.00000000	          0.00000000	          0.00000000	          0.00000000	          0.00000000	          0.00000000	         -7.14228487	          1.88493931	         -0.10236903	         23.91425896	        -36.24861908	         30.15049362	         87.61789703	         87.26596069	          0.00000000	          0.00000000	          0.00000000	          0.00000000	          0.00000000	          0.00000000	          0.00000000	          0.00000000	          0.00000000	        781.75247809	        309.08386872	        447.16429891	        761.89613953	        394.26440426	        451.61373296	        439.99435210	        313.94742455	        684.68236597	
          2.57000000	          0.00000000	          0.00000000	        391.46088095	        470.71529929	        354.14062392	          0.00000000	          0.00000000	          0.00000000	          0.00000000	          0.00000000	          0.00000000	          0.00000000	          0.00000000	          0.00000000	          0.00000000	          0.00000000	          0.00000000	          0.00000000	          0.00000000	         -7.14405012	          1.92226970	         -0.11420476	         23.77933693	        -36.31683731	         29.92687988	         87.65101624	         87.30027771	          0.00000000	          0.00000000	          0.00000000	          0.00000000	          0.00000000	          0.00000000	          0.00000000	          0.00000000	          0.00000000	        782.36042520	        309.13674172	        448.89143791	        762.40335858	        394.15375997	        453.14523635	        439.70564200	        313.86165241	        685.22865695	
          2.58000000	          0.00000000	          0.00000000	        391.65270837	        470.81313244	        354.37444811	          0.00000000	          0.00000000	          0.00000000	          0.00000000	          0.00000000	          0.00000000	          0.00000000	          0.00000000	          0.00000000	          0.00000000	          0.00000000	          0.00000000	          0.00000000	          0.00000000	         -7.10919809	          2.01630950	         -0.15536445	         23.72575188	        -36.47635269	         29.84434128	         87.66157532	         87.31864166	          0.00000000	          0.00000000	          0.00000000	          0.00000000	          0.00000000	          0.00000000	          0.00000000	          0.00000000	          0.00000000	        782.96916607	        309.29517817	        450.67763655	        763.00645720	        394.36884312	        454.78920401	        439.45614007	        313.80141030	        685.70182353	
          2.59000000	          0.00000000	          0.00000000	        391.74534954	        470.78633853	        354.52179120	          0.00000000	          0.00000000	          0.00000000	          0.00000000	          0.00000000	          0.00000000	          0.00000000	          0.00000000	          0.00000000	          0.00000000	          0.00000000	          0.00000000	          0.00000000	          0.00000000	         -7.11778879	          2.05795479	         -0.16541913	         23.59689903	        -36.53100967	         29.63190269	         87.63729858	         87.38043213	          0.00000000	          0.00000000	          0.00000000	          0.00000000	          0.00000000	          0.00000000	          0.00000000	          0.00000000	          0.00000000	        783.37793762	        309.26644441	        452.27077117	        763.58087659	        394.34364642	        456.43435479	        439.15526319	        313.81811510	        686.26165454	
          2.60000000	          0.00000000	          0.00000000	        391.83378466	        470.77617186	        354.68815959	          0.00000000	          0.00000000	          0.00000000	          0.00000000	          0.00000000	          0.00000000	          0.00000000	          0.00000000	          0.00000000	          0.00000000	          0.00000000	          0.00000000	          0.00000000	          0.00000000	         -7.11917400	          2.09949803	         -0.17994303	         23.53029060	        -36.60460281	         29.42644310	         87.57495880	         87.42443085	          0.00000000	          0.00000000	          0.00000000	          0.00000000	          0.00000000	          0.00000000	          0.00000000	          0.00000000	          0.00000000	        784.12223060	        309.20203484	        454.23105123	        764.14934069	        394.35775195	        458.10582076	        438.93083750	        313.70342969	        686.85011443	
